<svg xmlns="http://www.w3.org/2000/svg" width="890" height="42" viewBox="0 0 890 42">
  <metadata><?xpacket begin="﻿" id="W5M0MpCehiHzreSzNTczkc9d"?>
<x:xmpmeta xmlns:x="adobe:ns:meta/" x:xmptk="Adobe XMP Core 5.6-c138 79.159824, 2016/09/14-01:09:01        ">
   <rdf:RDF xmlns:rdf="http://www.w3.org/1999/02/22-rdf-syntax-ns#">
      <rdf:Description rdf:about=""/>
   </rdf:RDF>
</x:xmpmeta>
                                                                                                    
                                                                                                    
                                                                                                    
                                                                                                    
                                                                                                    
                                                                                                    
                                                                                                    
                                                                                                    
                                                                                                    
                                                                                                    
                                                                                                    
                                                                                                    
                                                                                                    
                                                                                                    
                                                                                                    
                                                                                                    
                                                                                                    
                                                                                                    
                                                                                                    
                                                                                                    
                           
<?xpacket end="w"?></metadata>
<defs>
    <style>
      .cls-1 {
        fill: #f0f0f0;
        fill-rule: evenodd;
      }
    </style>
  </defs>
  <path id="SPPIRRAL_LABBSS" data-name="SPPIRRAL LABBSS" class="cls-1" d="M28.3,42.442h4.14a70.248,70.248,0,0,0,11.313-.8,31.352,31.352,0,0,0,7.622-2.064,13.271,13.271,0,0,0,4.471-3.138,9.891,9.891,0,0,0,2.221-3.661,13.978,13.978,0,0,0,.54-4.046V27.964a9.559,9.559,0,0,0-5.551-9.056Q47.5,16.018,35.017,15.8L30.8,15.736l-3.287-.048a33.133,33.133,0,0,1-6.692-.605,6.647,6.647,0,0,1-3-1.211,2.372,2.372,0,0,1-.63-1.707,2.5,2.5,0,0,1,.57-1.734q0.57-.633,3.271-1.211a34.256,34.256,0,0,1,7.278-.578H30.4a29.641,29.641,0,0,1,5.132.385,18.706,18.706,0,0,1,3.751.881,5.96,5.96,0,0,1,2.04,1.266,4.778,4.778,0,0,1,.99,1.239,5.031,5.031,0,0,1,.33,1.129H57.164V12.99a10.357,10.357,0,0,0-.66-3.716,10.178,10.178,0,0,0-2.431-3.5,14.643,14.643,0,0,0-4.561-2.973A32.517,32.517,0,0,0,42.04.824a67.138,67.138,0,0,0-10.8-.771H27.1A63.252,63.252,0,0,0,16.774.8,30.207,30.207,0,0,0,9.721,2.7,13.242,13.242,0,0,0,5.49,5.53,8.843,8.843,0,0,0,3.33,8.888a11.888,11.888,0,0,0-.54,3.661v0.5q0,11.45,21.786,12l3.283,0.07,4.4,0.094a42.419,42.419,0,0,1,7.622.688,7.049,7.049,0,0,1,3.361,1.349,2.942,2.942,0,0,1,.72,2.092,3.058,3.058,0,0,1-.42,1.624,4.215,4.215,0,0,1-1.68,1.349,12.719,12.719,0,0,1-4.021,1.019,37.762,37.762,0,0,1-5.828.358H28.766c-8.522,0-11.673-2.165-11.993-6.5H2.189V27.8a14.19,14.19,0,0,0,.45,3.633,11.559,11.559,0,0,0,2.04,3.826,13.235,13.235,0,0,0,4.291,3.606A28.585,28.585,0,0,0,16.653,41.4,57.2,57.2,0,0,0,28.3,42.441h0Zm145.3-14.388q20.826,0,20.826-13.432v-0.55q0-13.322-20.826-13.322H62.309V41.706H76.293V28.054h97.3Zm-97.3-18h97.06q6.481,0,6.482,4.349v0.165q0,4.294-6.482,4.294H76.293V10.053ZM211.371,0.807H197.419V41.67h13.952V0.807ZM230.6,27.173h95.478q5.1,0,7.2,1.706t2.1,5.505v4.734c0,1.211-.011,2.587-0.011,2.587h14.057s0-2.826,0-5.285v-6a8.228,8.228,0,0,0-2.34-6.083,13.181,13.181,0,0,0-6.122-3.33q8.281-2.477,8.282-8.973v-0.66q0-10.625-19.385-10.625H216.62V41.706H230.6V27.173Zm0-17.121h98.418a6.784,6.784,0,0,1,4.261,1.1,3.49,3.49,0,0,1,1.381,2.863v0.055a3.545,3.545,0,0,1-1.381,2.918,6.784,6.784,0,0,1-4.261,1.1H230.6V10.052ZM409.208,41.672h15.1L400.364,0.618H372.887l-22.62,41.054h14.258l4.03-7.5H405Zm-17.729-31.6L399.823,24.9H373.548l7.991-14.819Zm34.479-9.3V41.726H470.97V31.541H439.942V0.769H425.958Zm77.155,0V41.726h45.012V31.541H517.1V0.769H503.113Zm102.846,40.9h15.1L597.116,0.618H569.638l-22.62,41.054h14.258l4.03-7.5h36.442Zm-17.728-31.6L596.574,24.9H570.3l7.99-14.819Zm34.478,31.637H735.925q18.528,0,18.528-11.808V29.125a9.752,9.752,0,0,0-1.022-4.525,8.175,8.175,0,0,0-2.707-3.117,20.175,20.175,0,0,0-3.069-1.738,15.822,15.822,0,0,0-2.827-.938,11.591,11.591,0,0,0,2.045-.773,15.857,15.857,0,0,0,2.286-1.407,6.458,6.458,0,0,0,2.016-2.428,7.542,7.542,0,0,0,.752-3.394V10.033a7.947,7.947,0,0,0-3.73-6.76Q744.467,0.652,735.563.652H622.709V41.706ZM636.726,9.315h96.431q4.872,0,4.873,3.256v0.11q0,3.311-4.873,3.311H636.726V9.315Zm97.634,15.4q5.535,0,5.535,3.808v0.221a3.879,3.879,0,0,1-1.2,2.814q-1.2,1.214-4.332,1.214H636.726V24.71H734.36Zm48.279,17h80.913a70.249,70.249,0,0,0,11.313-.8,31.337,31.337,0,0,0,7.622-2.064,13.277,13.277,0,0,0,4.472-3.138,9.893,9.893,0,0,0,2.22-3.661A13.991,13.991,0,0,0,889.72,28V27.228a9.559,9.559,0,0,0-5.552-9.056q-5.552-2.89-18.035-3.11L861.918,15l-80.06-.048a33.13,33.13,0,0,1-6.692-.605,6.655,6.655,0,0,1-3-1.211,2.372,2.372,0,0,1-.63-1.707,2.5,2.5,0,0,1,.57-1.734q0.572-.633,3.271-1.211a34.261,34.261,0,0,1,7.278-.578h78.859a29.632,29.632,0,0,1,5.131.385,18.694,18.694,0,0,1,3.751.881,5.963,5.963,0,0,1,2.041,1.266,4.774,4.774,0,0,1,.99,1.239,5.017,5.017,0,0,1,.33,1.129H888.28V12.254a10.357,10.357,0,0,0-.66-3.716,10.191,10.191,0,0,0-2.431-3.5,14.656,14.656,0,0,0-4.561-2.973A32.539,32.539,0,0,0,873.156.088a67.142,67.142,0,0,0-10.8-.771H781.438a63.191,63.191,0,0,0-10.322.743,30.215,30.215,0,0,0-7.052,1.9,13.25,13.25,0,0,0-4.232,2.835,8.841,8.841,0,0,0-2.16,3.358,11.9,11.9,0,0,0-.54,3.661v0.5q0,11.45,21.785,12l3.283,0.07,81.173,0.094a42.427,42.427,0,0,1,7.622.688,7.052,7.052,0,0,1,3.361,1.349,2.943,2.943,0,0,1,.72,2.092,3.057,3.057,0,0,1-.42,1.624,4.215,4.215,0,0,1-1.681,1.349,12.714,12.714,0,0,1-4.021,1.019,37.737,37.737,0,0,1-5.828.358H783.108c-8.522,0-11.673-2.165-11.993-6.5H756.532v0.605a14.2,14.2,0,0,0,.45,3.633,11.563,11.563,0,0,0,2.04,3.826,13.237,13.237,0,0,0,4.291,3.606A28.589,28.589,0,0,0,771,40.659a57.209,57.209,0,0,0,11.644,1.046h0Z"/>
</svg>
